<svg xmlns="http://www.w3.org/2000/svg" viewBox="0 0 705.13 154.34"><defs><style>.c1{fill:#fff}.c2{fill:#91d63f}.c3{fill:#2588d0}.c5{fill:#ddd610}</style></defs><path d="M223.26 120.54A10.25 10.25 0 0 0 222.1 109a56.72 56.72 0 0 0 7.15-6.43v16.16a4.87 4.87 0 0 0 .38 1.79zm11.62-25.08c.15-.22.32-.43.47-.66a53.28 53.28 0 0 0 6-12.85 22 22 0 0 0 5.42 7.05 23.24 23.24 0 0 0 4.17 2.84q-.66 1.82-1.4 3.62zM126.77 49.41c16.79-23 44.12-38.74 71.73-38.74a62.85 62.85 0 0 1 24.78 4.85 8 8 0 0 0 12.86 7.77 51.6 51.6 0 0 1 7.41 7.43A52.61 52.61 0 0 1 251 43.11a23.84 23.84 0 0 0-4 2.77 22.73 22.73 0 0 0-5.32 6.89 40.08 40.08 0 0 0-11.29-16.56 45.91 45.91 0 0 0-16.15-8.89 62.66 62.66 0 0 0-19.33-2.88 73.4 73.4 0 0 0-53.06 22 69.31 69.31 0 0 0-12.39 16.83c-1 1.93-1.89 3.92-2.71 5.93zm-4.5 83.29a52.47 52.47 0 0 1-5.87-9h5.37a5 5 0 0 0 5-5v-5.09a45.64 45.64 0 0 0 9.94 12.7A48.68 48.68 0 0 0 154.2 136a69.43 69.43 0 0 0 21 3 73 73 0 0 0 22.2-3.49 83.59 83.59 0 0 0 19.31-9.18v4.17a5 5 0 0 0 2.05 4c-15.06 11.34-33.2 18.26-51.48 18.26-18.55-.02-34.54-7.14-45.01-20.07zm167.56-7.23H280a5.18 5.18 0 0 0-.3-1.72h6.18a59.4 59.4 0 0 0 6.33-.34zm19.12-4.88h-5.67a24.76 24.76 0 0 0 6-3.76c5.71-4.9 8.6-12.2 8.6-21.7 0-9.34-2.59-16.4-7.71-21-4.92-4.4-12.21-6.53-22.27-6.53h-16.23a10.58 10.58 0 0 1-2-.14c-.15 0-.15-.09 0-.13a7.82 7.82 0 0 1 2-.23h37.93a4.94 4.94 0 0 0 2.32-.59 5 5 0 0 0 1.69.31h17.27v51.81a5 5 0 0 0 .39 1.93zm83.16 0a5 5 0 0 0-1.07.13 4.89 4.89 0 0 0-.89-.13h-28.67a5 5 0 0 0 .39-1.93V66.84h14.74a46 46 0 0 0 19.78 53.74zm16.89 7.87l.41-1a5 5 0 0 0 .32-1.37 46 46 0 0 0 10.24 1.25l-.46 1.14zm40.41-7.92h-5a46.39 46.39 0 0 0 17.55-19.4v17.51a5 5 0 0 0 .37 1.89h-12.94zm59.46 3.1h-5.74a5 5 0 0 1 0 3.74l2.17-2.24a5 5 0 0 1 3.53-1.51h.5a51 51 0 0 0 13.6-1.7 34.08 34.08 0 0 0 21.83-20.41 42 42 0 0 0 1.55-5 46.08 46.08 0 0 0 86.14 2.09v20a5 5 0 0 0 5 5h20.9a5 5 0 0 0 5-5.06l-.3-24.11 15.14 26.64a5 5 0 0 0 4.35 2.53h21.57a5 5 0 0 0 5-5V43.75a5 5 0 0 0-5-5h-20.83a5 5 0 0 0-5 5.07l.3 21.47-13.69-24a5 5 0 0 0-4.34-2.52h-23.08a5 5 0 0 0-5 5v20.09a46.07 46.07 0 0 0-86.3 2.54A36.92 36.92 0 0 0 538 50.05c-6.84-7.5-17.09-11.31-30.48-11.31h-40.58a5 5 0 0 0-5 5v17.61a46 46 0 0 0-77.72-8.64v-8.87a5 5 0 0 0-5-5H313.6a5 5 0 0 0-2 .42 5 5 0 0 0-2-.42h-38.92a45.46 45.46 0 0 0-15.43 2.34 57.34 57.34 0 0 0-8.07-13.39 56.38 56.38 0 0 0-8.34-8.32 8 8 0 0 0 .44-2.51 8.06 8.06 0 0 0-13.85-5.61A67.42 67.42 0 0 0 198.5 6c-27.21 0-54.17 14.51-72 36.19a5 5 0 0 0-4.72-3.43H95.42a5 5 0 0 0-4.75 3.42L80 74.27 69.34 42.18a5 5 0 0 0-4.75-3.42H38.15a5 5 0 0 0-3.57 1.5A5 5 0 0 0 31 38.75H11a5 5 0 0 0-5 5v74.91a5 5 0 0 0 5 5h20a5 5 0 0 0 3.57-1.5 5 5 0 0 0 3.57 1.5H59a5 5 0 0 0 5-5.13l-.11-4 1.91 5.69a5 5 0 0 0 4.74 3.41h19.7a5 5 0 0 0 4.76-3.41l1.58-4.81-.07 3.13a5 5 0 0 0 5 5.11h9.68a57.31 57.31 0 0 0 7.45 12c11.37 14 28.66 21.78 48.67 21.78 20.68 0 41.2-8.41 57.7-22h5.5l-10.29 15a5 5 0 0 0 4.12 7.83h12.6a5 5 0 0 0 4.17-2.25l5.25-8h24.36l-1.34 3.34a5 5 0 0 0 4.62 6.95h12.64a5 5 0 0 0 4.79-3.58l4.54-15.3h5.26a5 5 0 0 0 3.77-1.72l.84-1 4.1 17.72a5 5 0 0 0 4.87 3.87h10a5 5 0 0 0 4.94-5.65l-.27-2.07h1.1a5 5 0 0 0 4.18 7.72H348a5 5 0 0 0 3.13-1.1l7.41-6 5.5 5.57a5 5 0 0 0 3.56 1.48h25.96a5 5 0 0 0 4.64-3.13l4.8-11.77h10.51l-3.25 8a5 5 0 0 0 4.62 6.87h12.66a5 5 0 0 0 4.64-3.13l4.78-11.87h11.84a5 5 0 0 0-1.19 1.75l-2 4.88a5 5 0 0 0 4.63 6.86h37.6a5 5 0 0 0 4.64-3.13l3.83-9.5a5 5 0 0 0 .85 1.23l8.1 8.34a5 5 0 0 0 3.59 1.52H528a5 5 0 0 0 3.59-1.52l8.1-8.34a5 5 0 0 0 1.41-3.48v-5a5 5 0 0 0-1.41-3.48l-8.1-8.34a5 5 0 0 0-3.59-1.52h-18.65" class="c1" transform="translate(-5 -5)"/><path d="M393.55 159.34h-25.96a6 6 0 0 1-4.27-1.78l-4.87-4.93-6.7 5.37a6 6 0 0 1-3.75 1.3h-13.18a6 6 0 0 1-5-2.66 5.87 5.87 0 0 1-.47.61 6 6 0 0 1-4.49 2.05h-10a6 6 0 0 1-5.85-4.65l-3.67-15.86a6 6 0 0 1-4.06 1.59h-4.52L292.4 155a6 6 0 0 1-5.75 4.29H274a6 6 0 0 1-5.57-8.23l.79-2h-22.33l-5 7.5a6 6 0 0 1-5 2.7h-12.6a6 6 0 0 1-4.95-9.39l9.22-13.45h-3.24c-17.36 14.16-38 22-58.05 22-20.32 0-37.88-7.87-49.45-22.15a58.45 58.45 0 0 1-7.31-11.6h-9a6 6 0 0 1-5.63-3.93 6 6 0 0 1-5.63 3.93H70.54a6 6 0 0 1-5.69-4.09l-.09-.27a6 6 0 0 1-5.76 4.35H38.15a5.94 5.94 0 0 1-3.57-1.18 5.94 5.94 0 0 1-3.58 1.18H11a6 6 0 0 1-6-6V43.75a6 6 0 0 1 6-6h20a5.94 5.94 0 0 1 3.57 1.18 5.94 5.94 0 0 1 3.57-1.18h26.45a6 6 0 0 1 5.69 4.11L80 71.1l9.72-29.24a6 6 0 0 1 5.69-4.11h26.35a6 6 0 0 1 4.93 2.62C145.48 18.19 172.21 5 198.5 5a68.44 68.44 0 0 1 26.7 5.17 9 9 0 0 1 6-2.28 9.08 9.08 0 0 1 9.06 9.11 8.46 8.46 0 0 1-.29 2.15 57.45 57.45 0 0 1 8 8 58.39 58.39 0 0 1 7.84 12.78 47.31 47.31 0 0 1 14.89-2.09h38.9a5.93 5.93 0 0 1 2 .35 5.93 5.93 0 0 1 2-.35h65.62a6 6 0 0 1 6 6V50a46.81 46.81 0 0 1 35.15-15.81 47.41 47.41 0 0 1 40.57 23.21V43.75a6 6 0 0 1 6-6h40.55c13.68 0 24.18 3.91 31.22 11.64a36.32 36.32 0 0 1 7.62 13.81 47.07 47.07 0 0 1 85.15-3.85v-15.6a6 6 0 0 1 6-6h23.07a6 6 0 0 1 5.21 3l11.77 20.64-.25-17.59a6 6 0 0 1 6-6.09h20.86a6 6 0 0 1 6 6v74.91a6 6 0 0 1-6 6h-21.58a6 6 0 0 1-5.22-3l-13.22-23.27.25 20.23a6 6 0 0 1-6 6.08h-20.9a6 6 0 0 1-6-6v-15.51a47.07 47.07 0 0 1-85-3.46c-.25.79-.51 1.52-.77 2.2a35.12 35.12 0 0 1-21.65 20.75H528a6 6 0 0 1 4.3 1.82l8.1 8.34a6 6 0 0 1 1.7 4.18v5a6 6 0 0 1-1.7 4.18l-8.1 8.34a6 6 0 0 1-4.3 1.82h-19.1a6 6 0 0 1-4.3-1.82l-8-8.22-3.16 7.83a6 6 0 0 1-5.56 3.75h-37.61a6 6 0 0 1-5.56-8.24l2-4.88q.08-.19.17-.37h-9.26l-4.53 11.24a6 6 0 0 1-5.57 3.76h-12.66a6 6 0 0 1-5.54-8.25l2.7-6.67h-8.35l-4.53 11.24a6 6 0 0 1-5.59 3.65zm-35-9.09a1 1 0 0 1 .71.3l5.5 5.57a4 4 0 0 0 2.84 1.19h26a4 4 0 0 0 3.71-2.51L402 143a1 1 0 0 1 .93-.63h10.51a1 1 0 0 1 .93 1.37l-3.25 8a4 4 0 0 0 3.7 5.5h12.65a4 4 0 0 0 3.71-2.51l4.82-11.8a1 1 0 0 1 .93-.63h11.87a1 1 0 0 1 .69 1.72 4 4 0 0 0-1 1.4l-2 4.88a4 4 0 0 0 3.71 5.49h37.6a4 4 0 0 0 3.71-2.5l3.83-9.5a1 1 0 0 1 .88-.62 1 1 0 0 1 .93.55 4 4 0 0 0 .68 1l8.1 8.34a4 4 0 0 0 2.87 1.21H528a4 4 0 0 0 2.87-1.21l8.1-8.34a4 4 0 0 0 1.13-2.79v-5a4 4 0 0 0-1.13-2.79l-8.1-8.34a4 4 0 0 0-2.87-1.21h-19.14a4 4 0 0 0-2.82 1.21l-2.17 2.24a1 1 0 0 1-1.65-1.07 4 4 0 0 0 0-3 1 1 0 0 1 .93-1.38h6.23a50 50 0 0 0 13.28-1.59 33.09 33.09 0 0 0 21.18-19.82 40.87 40.87 0 0 0 1.51-4.87 1 1 0 0 1 1.91-.09 45.08 45.08 0 0 0 84.28 2 1 1 0 0 1 1.93.38v20a4 4 0 0 0 4 4h20.9a4 4 0 0 0 4-4.05l-.3-24.11a1 1 0 0 1 1.87-.51l15.14 26.64a4 4 0 0 0 3.48 2h21.57a4 4 0 0 0 4-4V43.75a4 4 0 0 0-4-4h-20.85a4 4 0 0 0-4 4.06l.3 21.47a1 1 0 0 1-1.87.51L664 41.76a4 4 0 0 0-3.47-2h-23.05a4 4 0 0 0-4 4v20.1a1 1 0 0 1-1.93.38 45.07 45.07 0 0 0-84.42 2.48 1 1 0 0 1-1 .68 1 1 0 0 1-.93-.76 36 36 0 0 0-8-15.91c-6.64-7.29-16.64-11-29.74-11h-40.52a4 4 0 0 0-4 4v17.62a1 1 0 0 1-1.9.43 45.38 45.38 0 0 0-40.67-25.63A44.87 44.87 0 0 0 385 53.33a1 1 0 0 1-1.78-.62v-8.87a4 4 0 0 0-4-4H313.6a4 4 0 0 0-1.6.34 1 1 0 0 1-.8 0 4 4 0 0 0-1.6-.34h-38.92a44.24 44.24 0 0 0-15.1 2.28 1 1 0 0 1-1.26-.54 56.49 56.49 0 0 0-7.93-13.16 55.56 55.56 0 0 0-8.2-8.17 1 1 0 0 1-.32-1.09 7 7 0 0 0 .39-2.19A7.05 7.05 0 0 0 226.13 12a1 1 0 0 1-1.12.22A66.26 66.26 0 0 0 198.5 7c-26.16 0-52.78 13.39-71.23 35.82a1 1 0 0 1-1.72-.32 4 4 0 0 0-3.78-2.75H95.42a4 4 0 0 0-3.8 2.74L81 74.58a1 1 0 0 1-1.9 0L68.39 42.49a4 4 0 0 0-3.8-2.74H38.15A4 4 0 0 0 35.29 41a1 1 0 0 1-1.43 0A4 4 0 0 0 31 39.75H11a4 4 0 0 0-4 4v74.91a4 4 0 0 0 4 4h20a4 4 0 0 0 2.85-1.2 1 1 0 0 1 1.43 0 4 4 0 0 0 2.85 1.2H59a4 4 0 0 0 4-4.11l-.11-4a1 1 0 0 1 1.95-.35l1.91 5.69a4 4 0 0 0 3.79 2.73h19.7a4 4 0 0 0 3.8-2.75l1.58-4.81a1 1 0 0 1 1.95.33l-.07 3.13a4 4 0 0 0 4 4.09h9.68a1 1 0 0 1 .91.58 56.45 56.45 0 0 0 7.32 11.81c11.18 13.81 28.19 21.41 47.89 21.41s40-7.71 57.06-21.72a1 1 0 0 1 .63-.23h5.5a1 1 0 0 1 .82 1.57L221 151a4 4 0 0 0 3.3 6.26h12.6a4 4 0 0 0 3.34-1.8l5.25-8a1 1 0 0 1 .83-.45h24.36a1 1 0 0 1 .93 1.37l-1.34 3.34a4 4 0 0 0 3.73 5.58h12.64a4 4 0 0 0 3.84-2.86l4.54-15.3a1 1 0 0 1 1-.72h5.26a4 4 0 0 0 3-1.37l.84-1a1 1 0 0 1 1.73.43l4.1 17.72a4 4 0 0 0 3.9 3.1h10a4 4 0 0 0 4-3.67 5.83 5.83 0 0 1 0-.65v-.2l-.27-2.07a1 1 0 0 1 1-1.13h1.1a1 1 0 0 1 .84 1.55 4 4 0 0 0-.64 1.85 6 6 0 0 1 0 .67 3.94 3.94 0 0 0 .24 1.07 4 4 0 0 0 3.74 2.58H348a4 4 0 0 0 2.5-.88l7.41-6a1 1 0 0 1 .62-.17zm-191.22 3.49c-18.88 0-35.15-7.25-45.82-20.42a53.69 53.69 0 0 1-6-9.2 1 1 0 0 1 .89-1.46h5.37a4 4 0 0 0 4-4v-5.09a1 1 0 0 1 1.89-.46 44.8 44.8 0 0 0 9.73 12.42 47.68 47.68 0 0 0 17.12 9.47 68.44 68.44 0 0 0 20.72 3 72 72 0 0 0 21.9-3.45 82.69 82.69 0 0 0 19.08-9.08 1 1 0 0 1 1.54.84v4.17a4 4 0 0 0 1.64 3.21 1 1 0 0 1 0 1.6c-15.82 11.9-34.31 18.45-52.08 18.45zm-49.24-29.08a51.16 51.16 0 0 0 5 7.4c10.28 12.69 26 19.68 44.26 19.68 17 0 34.66-6.15 49.91-17.34a5.91 5.91 0 0 1-1.49-3.94v-2.36a83.68 83.68 0 0 1-18 8.34 74 74 0 0 1-22.55 3.56 70.43 70.43 0 0 1-21.32-3.06 49.68 49.68 0 0 1-17.85-9.94 47.84 47.84 0 0 1-8.28-9.73v1.37a6 6 0 0 1-6 6zm301.42 4.8H409a1 1 0 0 1-.93-1.37l.41-1a4 4 0 0 0 .25-1.09 1 1 0 0 1 1.23-.87 45.14 45.14 0 0 0 10 1.22 1 1 0 0 1 .92 1.37l-.46 1.14a1 1 0 0 1-.94.6zm-9-2h1l-.9-.18zm-120.62-1H280a1 1 0 0 1-1-1 4.18 4.18 0 0 0-.24-1.39 1 1 0 0 1 .94-1.34h6.18a58.27 58.27 0 0 0 6.22-.33 1 1 0 0 1 .77 1.74l-2.33 2.06a1 1 0 0 1-.71.26zM391 121.71h-.4a2.65 2.65 0 0 0-.49-.07h-28.63a1 1 0 0 1-.92-1.39 4 4 0 0 0 .31-1.54V66.84a1 1 0 0 1 1-1h14.74a1 1 0 0 1 .95 1.31 45 45 0 0 0 19.35 52.58 1 1 0 0 1-.52 1.85h-4.28a4 4 0 0 0-.86.11zm-28.24-2.13h27.36a4.35 4.35 0 0 1 .88.11 5.62 5.62 0 0 1 1.08-.11h.95a47 47 0 0 1-17.81-51.74h-12.36v50.81a6 6 0 0 1-.07.93zm-31.54 2h-28a1 1 0 0 1-.41-1.91 23.58 23.58 0 0 0 5.8-3.61c5.48-4.7 8.25-11.75 8.25-20.94s-2.48-15.85-7.38-20.22c-4.73-4.22-11.8-6.28-21.61-6.28h-16.2a11.82 11.82 0 0 1-2.29-.18 1 1 0 0 1 0-2.06 8.78 8.78 0 0 1 2.26-.26h37.96a3.94 3.94 0 0 0 1.85-.48 1 1 0 0 1 .81-.06 4 4 0 0 0 1.35.25h17.27a1 1 0 0 1 1 1v51.81a4 4 0 0 0 .31 1.54 1 1 0 0 1-.92 1.39zm-24-2h22.67a6 6 0 0 1-.07-.93V67.84H313.6a5.7 5.7 0 0 1-1.6-.24 5.84 5.84 0 0 1-2.39.52h-8.87a24.75 24.75 0 0 1 10.15 5.29c5.34 4.77 8 12.07 8 21.71 0 9.8-3 17.36-8.95 22.46a23.56 23.56 0 0 1-2.68 2zm-84 2a1 1 0 0 1-.88-1.47 9.27 9.27 0 0 0 1.11-3.77 9.46 9.46 0 0 0-2.16-6.65 1 1 0 0 1 .17-1.44 56 56 0 0 0 7-6.31 1 1 0 0 1 1.73.68v16.16a3.85 3.85 0 0 0 .31 1.43 1 1 0 0 1-.93 1.37zm.23-12.34a11.48 11.48 0 0 1 2 7.24 11 11 0 0 1-.68 3.1h3.5a5.09 5.09 0 0 1-.06-.79V105a58.06 58.06 0 0 1-4.71 4.2zm225.87 12.34h-5a1 1 0 0 1-.52-1.85 45.24 45.24 0 0 0 17.17-19 1 1 0 0 1 1.9.43v17.51a4 4 0 0 0 .3 1.51 1 1 0 0 1-.93 1.38h-13zm-1.65-2H461a5.91 5.91 0 0 1-.07-.89v-13.56a47.2 47.2 0 0 1-13.21 14.41zM249.53 96.46h-14.65a1 1 0 0 1-.83-1.55l.25-.35c.07-.1.15-.2.21-.3a52.42 52.42 0 0 0 5.93-12.62 1 1 0 0 1 1.85-.14 21.06 21.06 0 0 0 5.13 6.74 22.06 22.06 0 0 0 4 2.72 1 1 0 0 1 .46 1.22c-.45 1.24-.93 2.48-1.42 3.66a1 1 0 0 1-.93.62zm-12.79-2h12.12c.29-.71.57-1.43.84-2.16a23.38 23.38 0 0 1-3.59-2.54 22.55 22.55 0 0 1-4.51-5.34 54.34 54.34 0 0 1-4.85 10.04zm-110-24.24h-.19a1 1 0 0 1-.81-1V49.41a1 1 0 0 1 .19-.59C143.6 24.67 171.39 9.67 198.5 9.67a63.7 63.7 0 0 1 25.17 4.93 1 1 0 0 1 .59 1.1 7 7 0 0 0-.13 1.25A7.07 7.07 0 0 0 231.2 24a7 7 0 0 0 4.32-1.52 1 1 0 0 1 1.25 0 52.8 52.8 0 0 1 7.55 7.57 53.73 53.73 0 0 1 7.59 12.62 1 1 0 0 1-.43 1.26 22.71 22.71 0 0 0-3.81 2.66 21.82 21.82 0 0 0-5.08 6.59 1 1 0 0 1-1.84-.12 39.19 39.19 0 0 0-11-16.15 44.9 44.9 0 0 0-15.79-8.68 61.66 61.66 0 0 0-19-2.84 72.4 72.4 0 0 0-52.35 21.73A68.32 68.32 0 0 0 130.4 63.7c-.89 1.71-1.74 3.57-2.66 5.84a1 1 0 0 1-.97.68zm1-20.49v14.73c.27-.56.54-1.1.82-1.63a70.32 70.32 0 0 1 12.57-17.07 74.4 74.4 0 0 1 53.77-22.32 63.65 63.65 0 0 1 19.64 2.93 46.89 46.89 0 0 1 16.5 9.09 41.7 41.7 0 0 1 10.81 15 23.44 23.44 0 0 1 4.49-5.3 23.77 23.77 0 0 1 3.36-2.43 51.56 51.56 0 0 0-6.95-11.34 50.61 50.61 0 0 0-6.68-6.79 8.89 8.89 0 0 1-4.87 1.4 9.08 9.08 0 0 1-9.07-9 7.67 7.67 0 0 1 0-.81 62 62 0 0 0-23.68-4.48c-26.33-.04-53.45 14.54-70.68 38.02z" transform="translate(-5 -5)"/><path d="M522.97 123.64H503.9l-8.1 8.34v4.97l8.1 8.34h19.07l8.1-8.34v-4.97l-8.1-8.34z" class="c2"/><path d="M528 151h-19.1a.75.75 0 0 1-.54-.23l-8.1-8.34a.75.75 0 0 1-.21-.52v-5a.75.75 0 0 1 .21-.52l8.1-8.34a.75.75 0 0 1 .54-.23H528a.75.75 0 0 1 .54.23l8.1 8.34a.75.75 0 0 1 .21.52v5a.75.75 0 0 1-.21.52l-8.1 8.34a.75.75 0 0 1-.54.23zm-18.75-1.5h18.43l7.67-7.9v-4.36l-7.67-7.9h-18.46l-7.67 7.9v4.36z" transform="translate(-5 -5)"/><path d="M270 120.5l-53.27.04v4.92h34.96l-5.99 7.76h-4.64l3.35-4.13H232.5l-13.16 19.21h12.59l6.73-10.2h15.39L270 120.5z" class="c2"/><path d="M236.93 154.6h-12.6a1.3 1.3 0 0 1-1.07-2l13.17-19.21a1.3 1.3 0 0 1 1.07-.56h11.9a1.3 1.3 0 0 1 1 2.12l-1.63 2h1.27l4-5.16h-32.31a1.3 1.3 0 0 1-1.3-1.3v-4.92a1.3 1.3 0 0 1 1.3-1.3H275a1.3 1.3 0 0 1 1 2.17L260 144a1.3 1.3 0 0 1-1 .43h-14.64L238 154a1.3 1.3 0 0 1-1.07.6zM226.8 152h9.43l6.35-9.62a1.3 1.3 0 0 1 1.09-.58h14.81l13.59-15h-49v2.32h33.66a1.3 1.3 0 0 1 1 2.09l-6 7.76a1.3 1.3 0 0 1-1 .51h-4.64a1.3 1.3 0 0 1-1-2.12l1.63-2h-8.49z" transform="translate(-5 -5)"/><path d="M354.14 125.58v4.88l-17.67 15.12h-12.63l1 7.72h-10l-4.26-18.4h10.17l1.76 5.72h5.29l12.12-10.2h-31v-4.88z" class="c2" transform="translate(-5 -5)"/><path d="M314.83 154.64a1.3 1.3 0 0 1-1.27-1l-4.26-18.4a1.3 1.3 0 0 1 1.27-1.59h10.17a1.3 1.3 0 0 1 1.24.92l1.48 4.8h3.85l9-7.6h-27.4a1.3 1.3 0 0 1-1.3-1.3v-4.88a1.3 1.3 0 0 1 1.3-1.3h45.19a1.3 1.3 0 0 1 1.3 1.3v4.88a1.3 1.3 0 0 1-.45 1l-17.67 15.12a1.3 1.3 0 0 1-.85.31h-11.11l.82 6.25a1.3 1.3 0 0 1-1.28 1.47h-10zm-2.62-18.4l3.65 15.76h7.5l-.82-6.26a1.3 1.3 0 0 1 1.29-1.47H336l16.85-14.42v-3h-42.6v2.28h29.66a1.3 1.3 0 0 1 .84 2.29l-12.12 10.2a1.3 1.3 0 0 1-.84.31h-5.29a1.3 1.3 0 0 1-1.24-.92l-1.48-4.8z" transform="translate(-5 -5)"/><path d="M371.91 145.78l9 7.52h-13.32l-8.2-8.3h-1.07L348 153.3h-13.18l14.32-12.64h16.29l10.12-10.2h-21.41v-4.88h36z" class="c2" transform="translate(-5 -5)"/><path d="M380.91 154.6h-13.32a1.3 1.3 0 0 1-.92-.39l-7.89-7.91-10 8a1.3 1.3 0 0 1-.81.29h-13.15a1.3 1.3 0 0 1-.86-2.27l14.32-12.64a1.3 1.3 0 0 1 .86-.33h15.75l7.54-7.6h-18.29a1.3 1.3 0 0 1-1.3-1.3v-4.88a1.3 1.3 0 0 1 1.3-1.3h36a1.3 1.3 0 0 1 1 2.17l-17.33 19.2 8 6.65a1.3 1.3 0 0 1-.83 2.3zm-12.78-2.6h9.19l-6.25-5.22a1.3 1.3 0 0 1-.13-1.87l16.28-18h-31.78v2.28h20.11a1.3 1.3 0 0 1 .92 2.22l-10.12 10.2a1.3 1.3 0 0 1-.92.38h-15.8l-11.37 10h9.27l10-8a1.3 1.3 0 0 1 .81-.29h1.07a1.3 1.3 0 0 1 .92.39z" transform="translate(-5 -5)"/><path d="M454.86 138.3h-21.32l-6 15H414.9l11.2-27.72h12.6l-3.16 7.88h21.33z" class="c2" transform="translate(-5 -5)"/><path d="M427.5 154.6h-12.64a1.3 1.3 0 0 1-1.2-1.79l11.2-27.72a1.3 1.3 0 0 1 1.21-.81h12.63a1.3 1.3 0 0 1 1.2 1.72l-2.44 6.1h19.41a1.3 1.3 0 0 1 1.2 1.79l-2 4.88a1.3 1.3 0 0 1-1.2.81h-20.45l-5.71 14.19a1.3 1.3 0 0 1-1.21.83zm-10.72-2.6h9.84l5.71-14.18a1.3 1.3 0 0 1 1.21-.81H454l.93-2.28h-19.39a1.3 1.3 0 0 1-1.21-1.78l2.44-6.1h-9.84z" transform="translate(-5 -5)"/><path d="M420.92 138.34h-21.33l-6 15h-12.64l11.2-27.72h12.64l-3.16 7.88h21.33z" class="c2" transform="translate(-5 -5)"/><path d="M393.55 154.64h-12.64a1.3 1.3 0 0 1-1.2-1.79l11.2-27.72a1.3 1.3 0 0 1 1.21-.81h12.64a1.3 1.3 0 0 1 1.21 1.78l-2.44 6.1h19.41a1.3 1.3 0 0 1 1.2 1.79l-2 4.88a1.3 1.3 0 0 1-1.2.81h-20.47l-5.71 14.19a1.3 1.3 0 0 1-1.21.77zM382.83 152h9.84l5.71-14.18a1.3 1.3 0 0 1 1.21-.81H420l.93-2.28h-19.34a1.3 1.3 0 0 1-1.21-1.78l2.44-6.1H393z" transform="translate(-5 -5)"/><path d="M493.5 120.54l-10.61 26.29-37.59-.04 1.95-4.88h24.96l8.65-21.38 12.64.01z" class="c2"/><path d="M487.89 153.13h-37.6a1.3 1.3 0 0 1-1.21-1.78l2-4.88a1.3 1.3 0 0 1 1.21-.82h24.08l8.29-20.65a1.3 1.3 0 0 1 1.21-.81h12.63a1.3 1.3 0 0 1 1.21 1.79l-10.61 26.33a1.3 1.3 0 0 1-1.21.82zm-35.68-2.64h34.8l9.56-23.69h-9.84l-8.32 20.56a1.3 1.3 0 0 1-1.21.81h-24.07z" transform="translate(-5 -5)"/><path d="M468.63 125.42h-15.56l1.96-4.88h15.6l-2 4.88z" class="c2"/><path d="M473.62 131.72h-15.56a1.3 1.3 0 0 1-1.21-1.78l2-4.88a1.3 1.3 0 0 1 1.21-.82h15.6a1.3 1.3 0 0 1 1.2 1.79l-2 4.88a1.3 1.3 0 0 1-1.24.81zm-13.62-2.6h12.76l.93-2.28H460.9z" transform="translate(-5 -5)"/><path d="M430.54 128.42l2.05-5.07 1.13-2.81h10.64l-1.12 2.81-2.04 5.07h-10.66z" class="c2"/><path d="M446.2 134.72h-10.66a1.3 1.3 0 0 1-1.21-1.79l3.18-7.88a1.3 1.3 0 0 1 1.21-.81h10.64a1.3 1.3 0 0 1 1.21 1.78l-3.16 7.88a1.3 1.3 0 0 1-1.21.82zm-8.74-2.6h7.86l2.12-5.28h-7.84z" transform="translate(-5 -5)"/><path d="M441.2 128.42l2.05-5.07 1.14-2.81h10.64l-3.16 7.88H441.2z" class="c2"/><path d="M446.2 134.72a1.3 1.3 0 0 1-1.21-1.79l3.18-7.88a1.3 1.3 0 0 1 1.21-.81H460a1.3 1.3 0 0 1 1.21 1.78l-3.16 7.88a1.3 1.3 0 0 1-1.21.82zm4.06-7.88l-2.13 5.28H456l2.12-5.28z" transform="translate(-5 -5)"/><path d="M292.25 120.58l-5.53 4.88h-21.21l-11.46 12.64h16.54l5.28-6.9-6.86 17.1h12.64l5.6-18.88h9l7.7-8.84h-11.7z" class="c2"/><path d="M286.65 154.6H274a1.3 1.3 0 0 1-1.21-1.78l3.44-8.59a1.3 1.3 0 0 1-.66.18h-16.52a1.3 1.3 0 0 1-1-2.17l11.46-12.64a1.3 1.3 0 0 1 1-.43h20.72l5.16-4.56a1.3 1.3 0 0 1 .86-.33h11.7a1.3 1.3 0 0 1 1 2.15l-7.7 8.84a1.3 1.3 0 0 1-1 .45h-8l-5.32 18a1.3 1.3 0 0 1-1.28.88zm-10.72-2.6h9.75l5.32-18a1.3 1.3 0 0 1 1.25-.93h8.41l5.43-6.24h-8.35l-5.16 4.56a1.3 1.3 0 0 1-.86.33h-20.64l-9.1 10h13l4.88-6.39a1.3 1.3 0 0 1 2.24 1.27z" transform="translate(-5 -5)"/><path d="M96.5 113.66l.8-36.64-12.06 36.64h-19.7L52.99 76.35l1 37.31H33.15V38.75h26.44l15.42 46.37 15.41-46.37h26.35v74.91H96.5z" class="c1"/><path d="M121.77 120H101.5a1.3 1.3 0 0 1-1.3-1.33l.61-27.93-9.34 28.36a1.3 1.3 0 0 1-1.23.89h-19.7a1.3 1.3 0 0 1-1.23-.89L59.52 90l.77 28.64A1.3 1.3 0 0 1 59 120H38.14a1.3 1.3 0 0 1-1.3-1.3V43.75a1.3 1.3 0 0 1 1.3-1.3h26.45a1.3 1.3 0 0 1 1.23.89L80 86l14.18-42.66a1.3 1.3 0 0 1 1.23-.89h26.35a1.3 1.3 0 0 1 1.3 1.3v74.91a1.3 1.3 0 0 1-1.29 1.34zm-18.94-2.6h17.64V45.05H96.36L81.24 90.53a1.3 1.3 0 0 1-2.47 0L63.65 45.05H39.44v72.31h18.22l-1-36a1.3 1.3 0 0 1 2.53-.45l12.25 36.42H89.3l11.77-35.74a1.3 1.3 0 0 1 2.53.44z" transform="translate(-5 -5)"/><path d="M330.87 113.65V56.84H308.6v-18h65.63v18h-22.36v56.81h-21z" class="c1"/><path d="M356.86 120h-21a1.3 1.3 0 0 1-1.3-1.3V63.14h-21a1.3 1.3 0 0 1-1.3-1.3v-18a1.3 1.3 0 0 1 1.3-1.3h65.62a1.3 1.3 0 0 1 1.3 1.3v18a1.3 1.3 0 0 1-1.3 1.3h-21.02v55.51a1.3 1.3 0 0 1-1.3 1.35zm-19.7-2.6h18.4V61.84a1.3 1.3 0 0 1 1.3-1.3h21.06v-15.4h-63v15.4h21a1.3 1.3 0 0 1 1.3 1.3z" transform="translate(-5 -5)"/><path d="M466.95 118.65v-74.9h40.55c11.92 0 20.93 3.26 26.78 9.68s8.7 16.09 8.7 29a47.61 47.61 0 0 1-2.85 17.29 29.09 29.09 0 0 1-18.6 17.44 48.86 48.86 0 0 1-13.61 1.51z" class="c1" transform="translate(-5 -5)"/><path d="M507.91 120h-41a1.3 1.3 0 0 1-1.3-1.3V43.75a1.3 1.3 0 0 1 1.3-1.3h40.55c12.3 0 21.64 3.4 27.74 10.1s9 16.64 9 29.87a48.88 48.88 0 0 1-2.94 17.76 30.38 30.38 0 0 1-19.44 18.21 50.08 50.08 0 0 1-13.91 1.61zm-39.67-2.6h39.67a47.62 47.62 0 0 0 13.24-1.45 27.19 27.19 0 0 0 9.29-5 27.48 27.48 0 0 0 8.47-11.71 46.33 46.33 0 0 0 2.77-16.81c0-12.57-2.81-22-8.37-28.12S519 45 507.49 45h-39.25z" transform="translate(-5 -5)"/><path d="M677.56 113.65l-24.73-43.51.54 43.51h-20.89v-74.9h23.07l23.31 40.89-.58-40.89h20.85v74.9h-21.57z" class="c1"/><path d="M704.13 120h-21.57a1.3 1.3 0 0 1-1.13-.66l-22.24-39.18.48 38.47a1.3 1.3 0 0 1-1.3 1.32h-20.9a1.3 1.3 0 0 1-1.3-1.3v-74.9a1.3 1.3 0 0 1 1.3-1.3h23.07a1.3 1.3 0 0 1 1.13.66l20.81 36.5-.48-35.84a1.3 1.3 0 0 1 1.3-1.32h20.86a1.3 1.3 0 0 1 1.3 1.3v74.91a1.3 1.3 0 0 1-1.33 1.34zm-20.82-2.6h19.52V45h-18.24l.56 39.57a1.3 1.3 0 0 1-2.43.66L659.79 45h-21v72.31h18.28l-.53-42.2a1.3 1.3 0 0 1 2.43-.66z" transform="translate(-5 -5)"/><circle cx="415.38" cy="76.25" r="41.09" class="c1"/><path d="M420.38 123.63a42.39 42.39 0 1 1 42.39-42.39 42.44 42.44 0 0 1-42.39 42.39zm0-82.18a39.79 39.79 0 1 0 39.79 39.79 39.83 39.83 0 0 0-39.79-39.78z" transform="translate(-5 -5)"/><circle cx="415.38" cy="76.25" r="41.09" class="c1"/><path d="M420.38 123.63a42.39 42.39 0 1 1 42.39-42.39 42.44 42.44 0 0 1-42.39 42.39zm0-82.18a39.79 39.79 0 1 0 39.79 39.79 39.83 39.83 0 0 0-39.79-39.78z" transform="translate(-5 -5)"/><circle cx="415.38" cy="76.25" r="23.88" class="c1"/><path d="M420.38 106.43a25.18 25.18 0 1 1 25.18-25.18 25.21 25.21 0 0 1-25.18 25.18zm0-47.77A22.58 22.58 0 1 0 443 81.25a22.61 22.61 0 0 0-22.62-22.59z" transform="translate(-5 -5)"/><circle cx="415.38" cy="76.25" r="23.88"/><path d="M420.38 106.43a25.18 25.18 0 1 1 25.18-25.18 25.21 25.21 0 0 1-25.18 25.18zm0-47.77A22.58 22.58 0 1 0 443 81.25a22.61 22.61 0 0 0-22.62-22.59z" transform="translate(-5 -5)"/><circle cx="584.8" cy="76.25" r="41.09" class="c1"/><path d="M589.8 123.63a42.39 42.39 0 1 1 42.39-42.39 42.44 42.44 0 0 1-42.39 42.39zm0-82.18a39.79 39.79 0 1 0 39.79 39.79 39.83 39.83 0 0 0-39.79-39.78z" transform="translate(-5 -5)"/><circle cx="584.8" cy="76.25" r="41.09" class="c1"/><path d="M589.8 123.63a42.39 42.39 0 1 1 42.39-42.39 42.44 42.44 0 0 1-42.39 42.39zm0-82.18a39.79 39.79 0 1 0 39.79 39.79 39.83 39.83 0 0 0-39.79-39.78z" transform="translate(-5 -5)"/><path d="M589.8 106.43A25.18 25.18 0 1 1 615 81.25a25.21 25.21 0 0 1-25.2 25.18zm0-47.77a22.58 22.58 0 1 0 22.58 22.58 22.61 22.61 0 0 0-22.58-22.58z" transform="translate(-5 -5)"/><circle cx="584.8" cy="76.25" r="23.88"/><path d="M589.8 106.43A25.18 25.18 0 1 1 615 81.25a25.21 25.21 0 0 1-25.2 25.18zm0-47.77a22.58 22.58 0 1 0 22.58 22.58 22.61 22.61 0 0 0-22.58-22.58zM507.21 100.65c5.39 0 9-1.22 10.87-3.64 1.39-1.84 3-6.07 3-15.81s-1.66-13.95-3.05-15.8c-1.83-2.43-5.49-3.66-10.87-3.66h-19.73v38.91z" transform="translate(-5 -5)"/><path d="M507.21 101.65h-19.78a1 1 0 0 1-1-1v-38.9a1 1 0 0 1 1-1h19.78c5.71 0 9.64 1.36 11.67 4.05s3.25 8.5 3.25 16.4-1.13 13.61-3.25 16.42-5.95 4.03-11.67 4.03zm-18.78-2h18.78c5.06 0 8.45-1.09 10.08-3.24 1.06-1.4 2.84-5.24 2.84-15.21s-1.79-13.78-2.85-15.2c-1.63-2.16-5-3.26-10.07-3.26h-18.78z" transform="translate(-5 -5)"/><path d="M6 38.75h20.02v18.28H6z" class="c1"/><path d="M31 63.33H11A1.3 1.3 0 0 1 9.7 62V43.75a1.3 1.3 0 0 1 1.3-1.3h20a1.3 1.3 0 0 1 1.3 1.3V62a1.3 1.3 0 0 1-1.3 1.33zm-18.7-2.6h17.41V45.05H12.3z" transform="translate(-5 -5)"/><path d="M6 57.04h20.02v56.63H6z" class="c1"/><path d="M31 120H11a1.3 1.3 0 0 1-1.3-1.3V62a1.3 1.3 0 0 1 1.3-1.3h20a1.3 1.3 0 0 1 1.3 1.3v56.63A1.3 1.3 0 0 1 31 120zm-18.72-2.6h17.43v-54H12.3zM507.28 143.42l.32-1.52h1.52l-.31 1.52zM509.82 143.42l1.56-7.38h1.13l-.24 1.1a4.31 4.31 0 0 1 1.28-.93 3.37 3.37 0 0 1 1.41-.3 2.34 2.34 0 0 1 1.48.41 1.44 1.44 0 0 1 .51 1.19 3.26 3.26 0 0 1 0 .41c0 .15-.05.32-.1.51l-1 5h-1.25l1-4.81c0-.18.06-.33.08-.46a2.92 2.92 0 0 0 0-.36.72.72 0 0 0-.29-.62 1.33 1.33 0 0 0-.81-.22 2.35 2.35 0 0 0-1.75.7 4.06 4.06 0 0 0-1 2.06l-.78 3.7zM523.57 141a3.19 3.19 0 0 1-1.18 1.95 3.6 3.6 0 0 1-2.26.71 2.89 2.89 0 0 1-2.23-.83 3.36 3.36 0 0 1-.78-2.39 5.05 5.05 0 0 1 1.08-3.34 3.46 3.46 0 0 1 2.78-1.3 2.79 2.79 0 0 1 3 3v.58c0 .21 0 .45-.08.71h-5.46v.43a2.14 2.14 0 0 0 .49 1.52 1.87 1.87 0 0 0 1.43.52 2 2 0 0 0 1.28-.42 2.07 2.07 0 0 0 .73-1.15zm-5-1.94h4a.82.82 0 0 0 0-.13v-.2a2 2 0 0 0-.45-1.36 1.58 1.58 0 0 0-1.23-.5 2.17 2.17 0 0 0-1.51.57 3.08 3.08 0 0 0-.77 1.63zM526.82 143.42l-.48.12a2.11 2.11 0 0 1-.38 0 1.9 1.9 0 0 1-1.16-.3 1.06 1.06 0 0 1-.39-.9 2.43 2.43 0 0 1 0-.35c0-.14.05-.33.09-.55l.94-4.43h-1.07l.23-1h1.05l.43-2h1.24l-.43 2h1.27l-.21 1h-1.28l-1 4.56c0 .11 0 .22-.06.31a1.51 1.51 0 0 0 0 .22.36.36 0 0 0 .15.31.69.69 0 0 0 .42.11h.37l.42-.06z" transform="translate(-5 -5)"/><circle cx="415.38" cy="76.25" r="13.9" class="c3"/><circle cx="584.8" cy="76.25" r="13.9" fill="#f67fa8"/><path d="M510.44 76.2l-21.11-12.19v24.38l21.11-12.19z" class="c5"/><path d="M494.32 95.69a2.3 2.3 0 0 1-2.3-2.3V69a2.3 2.3 0 0 1 3.45-2l21.11 12.19a2.3 2.3 0 0 1 0 4l-21.11 12.19a2.29 2.29 0 0 1-1.15.31zm2.3-22.69v16.41l14.22-8.21z" class="c5" transform="translate(-5 -5)"/><path d="M175.22 134a64.48 64.48 0 0 1-19.5-2.78 43.71 43.71 0 0 1-15.72-8.71 38.8 38.8 0 0 1-11.36-17.36 45.34 45.34 0 0 1-.92-21.44 62.53 62.53 0 0 1 6.17-18.1A64.21 64.21 0 0 1 145.4 50a68.39 68.39 0 0 1 49.52-20.56 57.69 57.69 0 0 1 17.79 2.64A40.94 40.94 0 0 1 227.12 40a34.76 34.76 0 0 1 10.18 15.36 39.08 39.08 0 0 1 .89 18.75 48.52 48.52 0 0 1-7 18 50.82 50.82 0 0 1-13.51 14 42.07 42.07 0 0 1-3.63 2.28l3.71 3.29a5.34 5.34 0 0 1-.59 8.44l-1.61 1.07a79.15 79.15 0 0 1-19.63 9.55 68 68 0 0 1-20.71 3.26z" class="c1" transform="translate(-5 -5)"/><path d="M175.22 135.27a65.76 65.76 0 0 1-19.9-2.84 45 45 0 0 1-16.17-8.95 40.17 40.17 0 0 1-11.74-18 46.63 46.63 0 0 1-1-22A63.84 63.84 0 0 1 132.75 65a65.52 65.52 0 0 1 11.73-15.93 69.69 69.69 0 0 1 50.44-20.94 59 59 0 0 1 18.19 2.7A42.23 42.23 0 0 1 228 39a36.14 36.14 0 0 1 10.57 15.94 40.37 40.37 0 0 1 .93 19.37 49.81 49.81 0 0 1-7.24 18.48 52.12 52.12 0 0 1-13.85 14.35q-1.07.75-2.18 1.44l2.37 2.1a6.64 6.64 0 0 1-.73 10.5l-1.61 1.07A80.44 80.44 0 0 1 196.3 132a69.3 69.3 0 0 1-21.08 3.27zm19.7-104.53a67.1 67.1 0 0 0-48.6 20.18 62.93 62.93 0 0 0-11.27 15.29 61.23 61.23 0 0 0-6 17.73 44.07 44.07 0 0 0 .88 20.82 37.58 37.58 0 0 0 11 16.78 42.41 42.41 0 0 0 15.18 8.46 63.18 63.18 0 0 0 19.11 2.72 66.7 66.7 0 0 0 20.28-3.2 77.85 77.85 0 0 0 19.3-9.4l1.61-1.07a4 4 0 0 0 .44-6.39l-3.71-3.29a1.3 1.3 0 0 1 .23-2.11 40.83 40.83 0 0 0 3.52-2.21 49.52 49.52 0 0 0 13.16-13.63 47.22 47.22 0 0 0 6.86-17.52 37.8 37.8 0 0 0-.85-18.13A33.56 33.56 0 0 0 226.25 41a39.63 39.63 0 0 0-13.94-7.63 56.4 56.4 0 0 0-17.39-2.63z" transform="translate(-5 -5)"/><path d="M193.18 63a1.39 1.39 0 0 0-2.09-1.83 10.23 10.23 0 0 1-14.3 0 1.39 1.39 0 0 0-2.08 1.83 10 10 0 0 0 1.19 1.12l-.12.09a1.39 1.39 0 0 0 1.72 2.18l.91-.72a13.25 13.25 0 0 0 4.14 1.11v.65a1.39 1.39 0 0 0 2.78 0v-.65a13.26 13.26 0 0 0 4.14-1.11l.91.72a1.39 1.39 0 1 0 1.72-2.18l-.12-.09a10 10 0 0 0 1.2-1.12z" transform="translate(-5 -5)"/><path d="M175.22 128.63a59.17 59.17 0 0 1-17.89-2.53 38.41 38.41 0 0 1-13.81-7.61 33.44 33.44 0 0 1-9.78-14.94 40.09 40.09 0 0 1-.74-18.91 57.13 57.13 0 0 1 5.65-16.56 58.85 58.85 0 0 1 10.55-14.31 63.05 63.05 0 0 1 45.74-19 52.38 52.38 0 0 1 16.15 2.38A35.64 35.64 0 0 1 223.62 44a29.37 29.37 0 0 1 8.6 13 33.85 33.85 0 0 1 .72 16.21 43.21 43.21 0 0 1-6.28 16 45.52 45.52 0 0 1-12.1 12.52 35 35 0 0 1-8.94 4.56 29.85 29.85 0 0 1-9.52 1.59c-4.13 0-7.09-.87-9-2.66a7.38 7.38 0 0 1-2-2.93 22.61 22.61 0 0 1-4.75 3.24 21.72 21.72 0 0 1-9.81 2.2c-5.94 0-10.3-1.72-13-5.12s-3.4-8.2-2.31-14.4a37.92 37.92 0 0 1 10-19.76c.75-.75 2.31-2 2.31-2a5.82 5.82 0 0 1 2 1.67c1.42 2.27 1 6.14-.71 8.9-3.86 6.3-4.21 10.59-2.45 14.57a8.55 8.55 0 0 0 7.37 4.6 11.92 11.92 0 0 0 7.25-2.8 18.36 18.36 0 0 0 5.5-7.39l4.62-10.86c.08-.19 2.08-5 3.41-7.82 1.69-3.63 3.36-5.93 6.86-6.89a22.18 22.18 0 0 1 5.76-.64c1.51 0 2.61.1 2.61.1l2.91.26s-4.34 2.55-8.21 11.47c-2.17 5-3.72 8.55-6.41 16.42-2 5.87-1 7.14 2 7.3a9.07 9.07 0 0 0 3.71-.8 16.58 16.58 0 0 0 4-2.49 32.35 32.35 0 0 0 7.71-8.8 32.72 32.72 0 0 0 4-11c1.29-7.33-.4-13.17-5.19-17.84s-11.94-7.13-21.09-7.13a50.1 50.1 0 0 0-12.89 1.63 43.76 43.76 0 0 0-11.37 4.82 49.26 49.26 0 0 0-15 13.68 43.77 43.77 0 0 0-7.53 17.9c-1.7 9.62.09 17.05 5.47 22.71s12.39 9 21.83 10.55a49.39 49.39 0 0 0 17.45-.32c4.44-.82 9.44-2.75 15.57-6.21l2-1.22 5.48 4.86-1.61 1.07a73.83 73.83 0 0 1-18.3 8.91 62.66 62.66 0 0 1-19.07 2.97z" class="c3" transform="translate(-5 -5)"/><path d="M234.25 118.75v-18.28h49.28c4.55 0 6.32-.78 7-1.25.31-.22 1.27-.91 1.27-3.53 0-1.9-.4-3.17-1.18-3.78-.56-.44-2.1-1.19-6.09-1.19h-15.12c-8.76 0-15.1-1.79-19.37-5.49s-6.55-9.57-6.55-17.29c0-8.18 2.29-14.34 6.81-18.29s11.13-5.8 20.37-5.8h38.93v18.27h-36.82c-3.9 0-5.73.81-6.59 1.5-.39.31-1.57 1.26-1.57 4.5 0 2.09.68 2.88 1.19 3.3 1 .79 2.67 1.2 4.95 1.2h17.17c8.78 0 15 1.72 18.94 5.26s6 9.38 6 17.24-2.31 14-6.86 17.91-11.1 5.72-20.24 5.72z" class="c1" transform="translate(-5 -5)"/><path d="M285.83 120h-51.58a1.3 1.3 0 0 1-1.3-1.3v-18.23a1.3 1.3 0 0 1 1.3-1.3h49.28c4.47 0 5.89-.77 6.22-1 .6-.43.73-1.58.73-2.48 0-2.06-.52-2.64-.68-2.76s-1.35-.91-5.28-.91h-15.11c-9.09 0-15.7-1.9-20.23-5.8s-7-10.16-7-18.28c0-8.57 2.44-15.06 7.26-19.27s11.66-6.13 21.23-6.13h38.93a1.3 1.3 0 0 1 1.3 1.3v18.28a1.3 1.3 0 0 1-1.3 1.3h-36.82c-3.7 0-5.21.76-5.77 1.21-.72.57-1.08 1.75-1.08 3.49s.52 2.13.72 2.29a7.13 7.13 0 0 0 4.12.91h17.17c9.12 0 15.6 1.83 19.81 5.59s6.48 10 6.48 18.21-2.46 14.73-7.31 18.89-11.63 5.99-21.09 5.99zm-50.28-2.6h50.28c8.81 0 15.16-1.77 19.39-5.4s6.4-9.34 6.4-16.92-1.88-12.9-5.62-16.23-9.63-4.93-18.08-4.93h-17.15c-2.62 0-4.56-.5-5.77-1.49a5.19 5.19 0 0 1-1.67-4.31c0-3.87 1.55-5.11 2.06-5.52 1.48-1.18 4-1.78 7.4-1.78h35.51V45.14h-37.62c-8.92 0-15.3 1.79-19.52 5.48s-6.37 9.52-6.37 17.31c0 7.33 2.05 12.82 6.1 16.31s10.09 5.17 18.53 5.17h15.11c3.34 0 5.66.49 6.89 1.46s1.67 2.46 1.67 4.8-.59 3.72-1.82 4.59c-1 .68-3.07 1.49-7.73 1.49h-48z" transform="translate(-5 -5)"/></svg>
